<mxfile host="app.diagrams.net" modified="2024-06-21T20:48:13.286Z" agent="Mozilla/5.0 (Windows NT 10.0; Win64; x64; rv:127.0) Gecko/20100101 Firefox/127.0" etag="XD84CJCGy0VEGgrlosW2" version="24.5.4" type="device">
  <diagram name="Page-1" id="KQnbSDW6qcbJTYcsXpHb">
    <mxGraphModel dx="1887" dy="1667" grid="1" gridSize="10" guides="1" tooltips="1" connect="1" arrows="1" fold="1" page="1" pageScale="1" pageWidth="850" pageHeight="1100" math="0" shadow="0">
      <root>
        <mxCell id="0" />
        <mxCell id="1" parent="0" />
        <mxCell id="UOW-hbor7YOvqm5oqLeM-14" value="Element" style="rounded=0;whiteSpace=wrap;html=1;fillColor=#dae8fc;strokeColor=#6c8ebf;" vertex="1" parent="1">
          <mxGeometry x="200" y="160" width="120" height="60" as="geometry" />
        </mxCell>
        <mxCell id="UOW-hbor7YOvqm5oqLeM-15" value="Hostmachine" style="rounded=0;whiteSpace=wrap;html=1;" vertex="1" parent="1">
          <mxGeometry x="30" y="110" width="120" height="60" as="geometry" />
        </mxCell>
        <mxCell id="UOW-hbor7YOvqm5oqLeM-16" value="SSHKEY" style="rounded=0;whiteSpace=wrap;html=1;" vertex="1" parent="1">
          <mxGeometry x="30" y="180" width="120" height="60" as="geometry" />
        </mxCell>
        <mxCell id="UOW-hbor7YOvqm5oqLeM-17" value="UEFI" style="rounded=0;whiteSpace=wrap;html=1;" vertex="1" parent="1">
          <mxGeometry x="30" y="250" width="120" height="60" as="geometry" />
        </mxCell>
        <mxCell id="UOW-hbor7YOvqm5oqLeM-18" value="LinuxIMA" style="rounded=0;whiteSpace=wrap;html=1;" vertex="1" parent="1">
          <mxGeometry x="30" y="320" width="120" height="60" as="geometry" />
        </mxCell>
        <mxCell id="UOW-hbor7YOvqm5oqLeM-38" value="EK" style="edgeStyle=orthogonalEdgeStyle;rounded=0;orthogonalLoop=1;jettySize=auto;html=1;entryX=1;entryY=0.25;entryDx=0;entryDy=0;exitX=0;exitY=0.25;exitDx=0;exitDy=0;startArrow=diamond;startFill=1;" edge="1" parent="1" source="UOW-hbor7YOvqm5oqLeM-19" target="UOW-hbor7YOvqm5oqLeM-21">
          <mxGeometry relative="1" as="geometry" />
        </mxCell>
        <mxCell id="UOW-hbor7YOvqm5oqLeM-19" value="IntelTXT" style="rounded=0;whiteSpace=wrap;html=1;" vertex="1" parent="1">
          <mxGeometry x="30" y="390" width="120" height="60" as="geometry" />
        </mxCell>
        <mxCell id="UOW-hbor7YOvqm5oqLeM-20" value="TPM2.0" style="rounded=0;whiteSpace=wrap;html=1;" vertex="1" parent="1">
          <mxGeometry x="30" y="460" width="120" height="60" as="geometry" />
        </mxCell>
        <mxCell id="UOW-hbor7YOvqm5oqLeM-21" value="TPMKey" style="rounded=0;whiteSpace=wrap;html=1;" vertex="1" parent="1">
          <mxGeometry x="-150" y="390" width="120" height="60" as="geometry" />
        </mxCell>
        <mxCell id="UOW-hbor7YOvqm5oqLeM-22" value="MarbleRun" style="rounded=0;whiteSpace=wrap;html=1;" vertex="1" parent="1">
          <mxGeometry x="30" y="530" width="120" height="60" as="geometry" />
        </mxCell>
        <mxCell id="UOW-hbor7YOvqm5oqLeM-23" value="MarbuleInstance" style="rounded=0;whiteSpace=wrap;html=1;" vertex="1" parent="1">
          <mxGeometry x="30" y="600" width="120" height="60" as="geometry" />
        </mxCell>
        <mxCell id="UOW-hbor7YOvqm5oqLeM-24" value="Intent" style="rounded=0;whiteSpace=wrap;html=1;fillColor=#dae8fc;strokeColor=#6c8ebf;" vertex="1" parent="1">
          <mxGeometry x="430" y="160" width="120" height="60" as="geometry" />
        </mxCell>
        <mxCell id="UOW-hbor7YOvqm5oqLeM-40" style="edgeStyle=orthogonalEdgeStyle;rounded=0;orthogonalLoop=1;jettySize=auto;html=1;entryX=0.5;entryY=1;entryDx=0;entryDy=0;" edge="1" parent="1" source="UOW-hbor7YOvqm5oqLeM-25" target="UOW-hbor7YOvqm5oqLeM-14">
          <mxGeometry relative="1" as="geometry" />
        </mxCell>
        <mxCell id="UOW-hbor7YOvqm5oqLeM-41" value="" style="edgeStyle=orthogonalEdgeStyle;rounded=0;orthogonalLoop=1;jettySize=auto;html=1;entryX=0.5;entryY=1;entryDx=0;entryDy=0;" edge="1" parent="1" source="UOW-hbor7YOvqm5oqLeM-25" target="UOW-hbor7YOvqm5oqLeM-24">
          <mxGeometry relative="1" as="geometry" />
        </mxCell>
        <mxCell id="UOW-hbor7YOvqm5oqLeM-25" value="ExpectedValue" style="rounded=0;whiteSpace=wrap;html=1;fillColor=#dae8fc;strokeColor=#6c8ebf;" vertex="1" parent="1">
          <mxGeometry x="320" y="310" width="120" height="60" as="geometry" />
        </mxCell>
        <mxCell id="UOW-hbor7YOvqm5oqLeM-26" value="&lt;div&gt;EVS&lt;/div&gt;" style="rounded=0;whiteSpace=wrap;html=1;" vertex="1" parent="1">
          <mxGeometry x="320" y="430" width="120" height="60" as="geometry" />
        </mxCell>
        <mxCell id="UOW-hbor7YOvqm5oqLeM-47" style="edgeStyle=orthogonalEdgeStyle;rounded=0;orthogonalLoop=1;jettySize=auto;html=1;entryX=1;entryY=0.5;entryDx=0;entryDy=0;" edge="1" parent="1" source="UOW-hbor7YOvqm5oqLeM-27" target="UOW-hbor7YOvqm5oqLeM-43">
          <mxGeometry relative="1" as="geometry" />
        </mxCell>
        <mxCell id="UOW-hbor7YOvqm5oqLeM-48" style="edgeStyle=orthogonalEdgeStyle;rounded=0;orthogonalLoop=1;jettySize=auto;html=1;entryX=1;entryY=0.5;entryDx=0;entryDy=0;" edge="1" parent="1" source="UOW-hbor7YOvqm5oqLeM-27" target="UOW-hbor7YOvqm5oqLeM-44">
          <mxGeometry relative="1" as="geometry" />
        </mxCell>
        <mxCell id="UOW-hbor7YOvqm5oqLeM-27" value="&amp;lt;&amp;lt;signed&amp;gt;&amp;gt;&lt;br&gt;&lt;div&gt;Claim&lt;/div&gt;" style="rounded=0;whiteSpace=wrap;html=1;fillColor=#d5e8d4;strokeColor=#82b366;" vertex="1" parent="1">
          <mxGeometry x="330" y="10" width="120" height="60" as="geometry" />
        </mxCell>
        <mxCell id="UOW-hbor7YOvqm5oqLeM-56" style="edgeStyle=orthogonalEdgeStyle;rounded=0;orthogonalLoop=1;jettySize=auto;html=1;startArrow=diamond;startFill=1;" edge="1" parent="1" source="UOW-hbor7YOvqm5oqLeM-28" target="UOW-hbor7YOvqm5oqLeM-55">
          <mxGeometry relative="1" as="geometry" />
        </mxCell>
        <mxCell id="UOW-hbor7YOvqm5oqLeM-57" style="edgeStyle=orthogonalEdgeStyle;rounded=0;orthogonalLoop=1;jettySize=auto;html=1;entryX=1;entryY=0.5;entryDx=0;entryDy=0;" edge="1" parent="1" source="UOW-hbor7YOvqm5oqLeM-28" target="UOW-hbor7YOvqm5oqLeM-27">
          <mxGeometry relative="1" as="geometry" />
        </mxCell>
        <mxCell id="UOW-hbor7YOvqm5oqLeM-58" style="edgeStyle=orthogonalEdgeStyle;rounded=0;orthogonalLoop=1;jettySize=auto;html=1;entryX=0.5;entryY=1;entryDx=0;entryDy=0;" edge="1" parent="1" source="UOW-hbor7YOvqm5oqLeM-28" target="UOW-hbor7YOvqm5oqLeM-44">
          <mxGeometry relative="1" as="geometry">
            <Array as="points">
              <mxPoint x="500" y="40" />
              <mxPoint x="500" y="-20" />
              <mxPoint x="220" y="-20" />
            </Array>
          </mxGeometry>
        </mxCell>
        <mxCell id="UOW-hbor7YOvqm5oqLeM-59" style="edgeStyle=orthogonalEdgeStyle;rounded=0;orthogonalLoop=1;jettySize=auto;html=1;entryX=0.75;entryY=0;entryDx=0;entryDy=0;exitX=0.25;exitY=1;exitDx=0;exitDy=0;" edge="1" parent="1" source="UOW-hbor7YOvqm5oqLeM-28" target="UOW-hbor7YOvqm5oqLeM-14">
          <mxGeometry relative="1" as="geometry">
            <Array as="points">
              <mxPoint x="600" y="120" />
              <mxPoint x="290" y="120" />
            </Array>
          </mxGeometry>
        </mxCell>
        <mxCell id="UOW-hbor7YOvqm5oqLeM-60" style="edgeStyle=orthogonalEdgeStyle;rounded=0;orthogonalLoop=1;jettySize=auto;html=1;entryX=1;entryY=0.5;entryDx=0;entryDy=0;exitX=0.75;exitY=1;exitDx=0;exitDy=0;" edge="1" parent="1" source="UOW-hbor7YOvqm5oqLeM-28" target="UOW-hbor7YOvqm5oqLeM-25">
          <mxGeometry relative="1" as="geometry">
            <Array as="points">
              <mxPoint x="660" y="340" />
            </Array>
          </mxGeometry>
        </mxCell>
        <mxCell id="UOW-hbor7YOvqm5oqLeM-28" value="&amp;lt;&amp;lt;signed&amp;gt;&amp;gt;&lt;br&gt;&lt;div&gt;Result&lt;/div&gt;" style="rounded=0;whiteSpace=wrap;html=1;fillColor=#d5e8d4;strokeColor=#82b366;" vertex="1" parent="1">
          <mxGeometry x="570" y="10" width="120" height="60" as="geometry" />
        </mxCell>
        <mxCell id="UOW-hbor7YOvqm5oqLeM-61" style="edgeStyle=orthogonalEdgeStyle;rounded=0;orthogonalLoop=1;jettySize=auto;html=1;" edge="1" parent="1" source="UOW-hbor7YOvqm5oqLeM-29" target="UOW-hbor7YOvqm5oqLeM-27">
          <mxGeometry relative="1" as="geometry">
            <Array as="points">
              <mxPoint x="390" y="-140" />
            </Array>
          </mxGeometry>
        </mxCell>
        <mxCell id="UOW-hbor7YOvqm5oqLeM-62" style="edgeStyle=orthogonalEdgeStyle;rounded=0;orthogonalLoop=1;jettySize=auto;html=1;entryX=0.75;entryY=0;entryDx=0;entryDy=0;" edge="1" parent="1" source="UOW-hbor7YOvqm5oqLeM-29" target="UOW-hbor7YOvqm5oqLeM-28">
          <mxGeometry relative="1" as="geometry" />
        </mxCell>
        <mxCell id="UOW-hbor7YOvqm5oqLeM-66" style="edgeStyle=orthogonalEdgeStyle;rounded=0;orthogonalLoop=1;jettySize=auto;html=1;entryX=0.5;entryY=1;entryDx=0;entryDy=0;exitX=0.5;exitY=0;exitDx=0;exitDy=0;startArrow=diamond;startFill=1;" edge="1" parent="1" source="UOW-hbor7YOvqm5oqLeM-29" target="UOW-hbor7YOvqm5oqLeM-65">
          <mxGeometry relative="1" as="geometry" />
        </mxCell>
        <mxCell id="UOW-hbor7YOvqm5oqLeM-29" value="&amp;lt;&amp;lt;signed&amp;gt;&amp;gt;&lt;br&gt;&lt;div&gt;Session&lt;/div&gt;" style="rounded=0;whiteSpace=wrap;html=1;fillColor=#e1d5e7;strokeColor=#9673a6;" vertex="1" parent="1">
          <mxGeometry x="430" y="-170" width="120" height="60" as="geometry" />
        </mxCell>
        <mxCell id="UOW-hbor7YOvqm5oqLeM-30" style="edgeStyle=orthogonalEdgeStyle;rounded=0;orthogonalLoop=1;jettySize=auto;html=1;entryX=1.029;entryY=0.483;entryDx=0;entryDy=0;entryPerimeter=0;startArrow=diamond;startFill=1;" edge="1" parent="1" source="UOW-hbor7YOvqm5oqLeM-14" target="UOW-hbor7YOvqm5oqLeM-15">
          <mxGeometry relative="1" as="geometry" />
        </mxCell>
        <mxCell id="UOW-hbor7YOvqm5oqLeM-31" style="edgeStyle=orthogonalEdgeStyle;rounded=0;orthogonalLoop=1;jettySize=auto;html=1;entryX=1;entryY=0.5;entryDx=0;entryDy=0;startArrow=diamond;startFill=1;exitX=0;exitY=0.5;exitDx=0;exitDy=0;" edge="1" parent="1" source="UOW-hbor7YOvqm5oqLeM-14" target="UOW-hbor7YOvqm5oqLeM-22">
          <mxGeometry relative="1" as="geometry">
            <mxPoint x="210" y="200" as="sourcePoint" />
            <mxPoint x="163" y="149" as="targetPoint" />
          </mxGeometry>
        </mxCell>
        <mxCell id="UOW-hbor7YOvqm5oqLeM-32" style="edgeStyle=orthogonalEdgeStyle;rounded=0;orthogonalLoop=1;jettySize=auto;html=1;entryX=1;entryY=0.5;entryDx=0;entryDy=0;startArrow=diamond;startFill=1;exitX=0;exitY=0.5;exitDx=0;exitDy=0;" edge="1" parent="1" source="UOW-hbor7YOvqm5oqLeM-14" target="UOW-hbor7YOvqm5oqLeM-23">
          <mxGeometry relative="1" as="geometry">
            <mxPoint x="220" y="210" as="sourcePoint" />
            <mxPoint x="160" y="570" as="targetPoint" />
          </mxGeometry>
        </mxCell>
        <mxCell id="UOW-hbor7YOvqm5oqLeM-33" style="edgeStyle=orthogonalEdgeStyle;rounded=0;orthogonalLoop=1;jettySize=auto;html=1;entryX=1;entryY=0.5;entryDx=0;entryDy=0;startArrow=diamond;startFill=1;exitX=0;exitY=0.5;exitDx=0;exitDy=0;" edge="1" parent="1" source="UOW-hbor7YOvqm5oqLeM-14" target="UOW-hbor7YOvqm5oqLeM-18">
          <mxGeometry relative="1" as="geometry">
            <mxPoint x="230" y="220" as="sourcePoint" />
            <mxPoint x="170" y="580" as="targetPoint" />
          </mxGeometry>
        </mxCell>
        <mxCell id="UOW-hbor7YOvqm5oqLeM-34" style="edgeStyle=orthogonalEdgeStyle;rounded=0;orthogonalLoop=1;jettySize=auto;html=1;entryX=1;entryY=0.5;entryDx=0;entryDy=0;startArrow=diamond;startFill=1;exitX=0;exitY=0.5;exitDx=0;exitDy=0;" edge="1" parent="1" source="UOW-hbor7YOvqm5oqLeM-14" target="UOW-hbor7YOvqm5oqLeM-17">
          <mxGeometry relative="1" as="geometry">
            <mxPoint x="240" y="230" as="sourcePoint" />
            <mxPoint x="180" y="590" as="targetPoint" />
          </mxGeometry>
        </mxCell>
        <mxCell id="UOW-hbor7YOvqm5oqLeM-35" style="edgeStyle=orthogonalEdgeStyle;rounded=0;orthogonalLoop=1;jettySize=auto;html=1;entryX=1;entryY=0.5;entryDx=0;entryDy=0;startArrow=diamond;startFill=1;exitX=0;exitY=0.5;exitDx=0;exitDy=0;" edge="1" parent="1" source="UOW-hbor7YOvqm5oqLeM-14" target="UOW-hbor7YOvqm5oqLeM-16">
          <mxGeometry relative="1" as="geometry">
            <mxPoint x="250" y="240" as="sourcePoint" />
            <mxPoint x="190" y="600" as="targetPoint" />
          </mxGeometry>
        </mxCell>
        <mxCell id="UOW-hbor7YOvqm5oqLeM-36" style="edgeStyle=orthogonalEdgeStyle;rounded=0;orthogonalLoop=1;jettySize=auto;html=1;entryX=1;entryY=0.5;entryDx=0;entryDy=0;startArrow=diamond;startFill=1;exitX=0;exitY=0.5;exitDx=0;exitDy=0;" edge="1" parent="1" source="UOW-hbor7YOvqm5oqLeM-14" target="UOW-hbor7YOvqm5oqLeM-19">
          <mxGeometry relative="1" as="geometry">
            <mxPoint x="260" y="250" as="sourcePoint" />
            <mxPoint x="200" y="610" as="targetPoint" />
          </mxGeometry>
        </mxCell>
        <mxCell id="UOW-hbor7YOvqm5oqLeM-37" style="edgeStyle=orthogonalEdgeStyle;rounded=0;orthogonalLoop=1;jettySize=auto;html=1;entryX=1;entryY=0.5;entryDx=0;entryDy=0;startArrow=diamond;startFill=1;exitX=0;exitY=0.5;exitDx=0;exitDy=0;" edge="1" parent="1" source="UOW-hbor7YOvqm5oqLeM-14" target="UOW-hbor7YOvqm5oqLeM-20">
          <mxGeometry relative="1" as="geometry">
            <mxPoint x="270" y="260" as="sourcePoint" />
            <mxPoint x="210" y="620" as="targetPoint" />
          </mxGeometry>
        </mxCell>
        <mxCell id="UOW-hbor7YOvqm5oqLeM-39" value="AK" style="edgeStyle=orthogonalEdgeStyle;rounded=0;orthogonalLoop=1;jettySize=auto;html=1;entryX=1;entryY=0.75;entryDx=0;entryDy=0;exitX=0;exitY=0.75;exitDx=0;exitDy=0;startArrow=diamond;startFill=1;" edge="1" parent="1" source="UOW-hbor7YOvqm5oqLeM-19" target="UOW-hbor7YOvqm5oqLeM-21">
          <mxGeometry relative="1" as="geometry">
            <mxPoint x="40" y="415" as="sourcePoint" />
            <mxPoint x="-20" y="415" as="targetPoint" />
          </mxGeometry>
        </mxCell>
        <mxCell id="UOW-hbor7YOvqm5oqLeM-42" value="" style="edgeStyle=orthogonalEdgeStyle;rounded=0;orthogonalLoop=1;jettySize=auto;html=1;exitX=0.5;exitY=1;exitDx=0;exitDy=0;startArrow=diamond;startFill=1;" edge="1" parent="1" source="UOW-hbor7YOvqm5oqLeM-25" target="UOW-hbor7YOvqm5oqLeM-26">
          <mxGeometry relative="1" as="geometry">
            <mxPoint x="40" y="415" as="sourcePoint" />
            <mxPoint x="-20" y="415" as="targetPoint" />
          </mxGeometry>
        </mxCell>
        <mxCell id="UOW-hbor7YOvqm5oqLeM-50" style="edgeStyle=orthogonalEdgeStyle;rounded=0;orthogonalLoop=1;jettySize=auto;html=1;startArrow=diamond;startFill=1;" edge="1" parent="1" source="UOW-hbor7YOvqm5oqLeM-43" target="UOW-hbor7YOvqm5oqLeM-46">
          <mxGeometry relative="1" as="geometry" />
        </mxCell>
        <mxCell id="UOW-hbor7YOvqm5oqLeM-51" style="edgeStyle=orthogonalEdgeStyle;rounded=0;orthogonalLoop=1;jettySize=auto;html=1;entryX=0.25;entryY=0;entryDx=0;entryDy=0;" edge="1" parent="1" source="UOW-hbor7YOvqm5oqLeM-43" target="UOW-hbor7YOvqm5oqLeM-14">
          <mxGeometry relative="1" as="geometry" />
        </mxCell>
        <mxCell id="UOW-hbor7YOvqm5oqLeM-52" style="edgeStyle=orthogonalEdgeStyle;rounded=0;orthogonalLoop=1;jettySize=auto;html=1;" edge="1" parent="1" source="UOW-hbor7YOvqm5oqLeM-43" target="UOW-hbor7YOvqm5oqLeM-24">
          <mxGeometry relative="1" as="geometry">
            <Array as="points">
              <mxPoint x="230" y="100" />
              <mxPoint x="490" y="100" />
            </Array>
          </mxGeometry>
        </mxCell>
        <mxCell id="UOW-hbor7YOvqm5oqLeM-53" style="edgeStyle=orthogonalEdgeStyle;rounded=0;orthogonalLoop=1;jettySize=auto;html=1;exitX=0.5;exitY=0;exitDx=0;exitDy=0;entryX=0.308;entryY=0.983;entryDx=0;entryDy=0;entryPerimeter=0;" edge="1" parent="1" source="UOW-hbor7YOvqm5oqLeM-43" target="UOW-hbor7YOvqm5oqLeM-29">
          <mxGeometry relative="1" as="geometry" />
        </mxCell>
        <mxCell id="UOW-hbor7YOvqm5oqLeM-43" value="ClaimHeader" style="rounded=0;whiteSpace=wrap;html=1;" vertex="1" parent="1">
          <mxGeometry x="170" y="10" width="120" height="60" as="geometry" />
        </mxCell>
        <mxCell id="UOW-hbor7YOvqm5oqLeM-44" value="ClaimFooter" style="rounded=0;whiteSpace=wrap;html=1;" vertex="1" parent="1">
          <mxGeometry x="160" y="-120" width="120" height="60" as="geometry" />
        </mxCell>
        <mxCell id="UOW-hbor7YOvqm5oqLeM-45" value="Body" style="rounded=0;whiteSpace=wrap;html=1;" vertex="1" parent="1">
          <mxGeometry x="160" y="-190" width="120" height="60" as="geometry" />
        </mxCell>
        <mxCell id="UOW-hbor7YOvqm5oqLeM-46" value="Timing" style="rounded=0;whiteSpace=wrap;html=1;" vertex="1" parent="1">
          <mxGeometry y="10" width="120" height="60" as="geometry" />
        </mxCell>
        <mxCell id="UOW-hbor7YOvqm5oqLeM-49" style="edgeStyle=orthogonalEdgeStyle;rounded=0;orthogonalLoop=1;jettySize=auto;html=1;entryX=1;entryY=0.425;entryDx=0;entryDy=0;entryPerimeter=0;startArrow=diamond;startFill=1;" edge="1" parent="1" source="UOW-hbor7YOvqm5oqLeM-27" target="UOW-hbor7YOvqm5oqLeM-45">
          <mxGeometry relative="1" as="geometry" />
        </mxCell>
        <mxCell id="UOW-hbor7YOvqm5oqLeM-54" style="edgeStyle=orthogonalEdgeStyle;rounded=0;orthogonalLoop=1;jettySize=auto;html=1;entryX=0.725;entryY=0.975;entryDx=0;entryDy=0;entryPerimeter=0;exitX=0.25;exitY=0;exitDx=0;exitDy=0;" edge="1" parent="1" source="UOW-hbor7YOvqm5oqLeM-28" target="UOW-hbor7YOvqm5oqLeM-29">
          <mxGeometry relative="1" as="geometry">
            <Array as="points">
              <mxPoint x="600" y="-50" />
              <mxPoint x="517" y="-50" />
            </Array>
          </mxGeometry>
        </mxCell>
        <mxCell id="UOW-hbor7YOvqm5oqLeM-55" value="ResultFooter" style="rounded=0;whiteSpace=wrap;html=1;" vertex="1" parent="1">
          <mxGeometry x="740" y="10" width="120" height="60" as="geometry" />
        </mxCell>
        <mxCell id="UOW-hbor7YOvqm5oqLeM-63" value="SessionFooter" style="rounded=0;whiteSpace=wrap;html=1;" vertex="1" parent="1">
          <mxGeometry x="430" y="-300" width="120" height="60" as="geometry" />
        </mxCell>
        <mxCell id="UOW-hbor7YOvqm5oqLeM-64" value="SessionSummary" style="rounded=0;whiteSpace=wrap;html=1;" vertex="1" parent="1">
          <mxGeometry x="570" y="-300" width="120" height="60" as="geometry" />
        </mxCell>
        <mxCell id="UOW-hbor7YOvqm5oqLeM-65" value="SessionTiming" style="rounded=0;whiteSpace=wrap;html=1;" vertex="1" parent="1">
          <mxGeometry x="290" y="-300" width="120" height="60" as="geometry" />
        </mxCell>
        <mxCell id="UOW-hbor7YOvqm5oqLeM-67" style="edgeStyle=orthogonalEdgeStyle;rounded=0;orthogonalLoop=1;jettySize=auto;html=1;entryX=0.5;entryY=1;entryDx=0;entryDy=0;exitX=0.5;exitY=0;exitDx=0;exitDy=0;startArrow=diamond;startFill=1;" edge="1" parent="1" source="UOW-hbor7YOvqm5oqLeM-29" target="UOW-hbor7YOvqm5oqLeM-63">
          <mxGeometry relative="1" as="geometry">
            <mxPoint x="500" y="-160" as="sourcePoint" />
            <mxPoint x="360" y="-230" as="targetPoint" />
          </mxGeometry>
        </mxCell>
        <mxCell id="UOW-hbor7YOvqm5oqLeM-68" style="edgeStyle=orthogonalEdgeStyle;rounded=0;orthogonalLoop=1;jettySize=auto;html=1;entryX=0.5;entryY=1;entryDx=0;entryDy=0;startArrow=diamond;startFill=1;exitX=0.5;exitY=0;exitDx=0;exitDy=0;" edge="1" parent="1" source="UOW-hbor7YOvqm5oqLeM-29" target="UOW-hbor7YOvqm5oqLeM-64">
          <mxGeometry relative="1" as="geometry">
            <mxPoint x="530" y="-200" as="sourcePoint" />
            <mxPoint x="500" y="-230" as="targetPoint" />
          </mxGeometry>
        </mxCell>
      </root>
    </mxGraphModel>
  </diagram>
</mxfile>
